<?xml version="1.0" standalone="no"?>
<svg viewBox="0 0 200 200" xmlns="http://www.w3.org/2000/svg">
  <path fill="#32012F" d="M40.3,-64.2C49.8,-56.6,53.5,-41.4,59.3,-27.5C65.1,-13.5,73,-1,74.1,12.6C75.1,26.1,69.3,40.6,58.7,48.3C48,56,32.5,56.9,19.1,57.2C5.7,57.5,-5.5,57.2,-19.8,57.5C-34.1,57.8,-51.5,58.7,-63.8,51.4C-76.1,44.1,-83.4,28.6,-85.1,12.6C-86.8,-3.4,-83,-19.8,-73.7,-31C-64.4,-42.2,-49.6,-48.2,-36.4,-54.2C-23.2,-60.1,-11.6,-66.1,1.9,-69C15.4,-71.9,30.8,-71.8,40.3,-64.2Z" transform="translate(100 100)" />
</svg>
